<?xml version="1.0" encoding="UTF-8"?>
<svg xmlns="http://www.w3.org/2000/svg" width="2361" height="625" viewBox="0 0 2361 625">
  <defs>
    <clipPath id="a">
      <path d="M0 0h2361v625H0z"></path>
    </clipPath>
  </defs>
  <g data-name="Gruppe 5194" clip-path="url(#a)">
    <path data-name="Pfad 1916" d="M380.432 603.397l-45.984-48.066v68.284h8.362v-47.4l45.986 48.775v-68.276h-8.361z" fill="#24262a"></path>
    <path data-name="Pfad 1917" d="M30.647 588.07a15.72 15.72 0 0010.451-14.633q0-16.725-22.994-16.722H-.002v66.891h21.591c15.33 0 22.994-8.362 22.994-19.509a16.786 16.786 0 00-13.936-16.027zM9.056 565.076h9.767c9.058 0 12.541 4.179 12.541 9.766 0 9.768-8.362 10.452-11.844 10.452l-10.464-.01zm10.451 49.468H9.056v-21.6h11.147c9.767 0 13.937 4.18 13.937 10.451.001 6.97-4.883 11.149-14.632 11.149z" fill="#24262a"></path>
    <path data-name="Pfad 1918" d="M875.281 555.322c-21.591 0-36.242 15.33-36.242 34.839 0 18.115 13.936 34.838 36.242 34.838s36.242-16.723 36.242-34.838c.001-16.026-11.842-34.839-36.242-34.839zm-.01 61.313c-15.33 0-25.78-11.844-25.78-26.474s10.451-26.475 25.78-26.475c16.723 0 25.781 13.24 25.781 26.475.001 14.632-10.45 26.474-25.78 26.474z" fill="#24262a"></path>
    <path data-name="Pfad 1919" d="M448.783 593.653h28.567v-8.372h-29.271v-20.205h31.358v-8.361h-41.1v66.89h41.806v-8.361h-31.358z" fill="#24262a"></path>
    <path data-name="Pfad 1920" d="M1030.678 565.075h16.722v58.529h9.767v-58.529h16.723v-8.361h-43.213z" fill="#24262a"></path>
    <path data-name="Pfad 1921" d="M550.517 589.464c-6.968-5.575-18.116-9.767-18.116-17.419a9.388 9.388 0 019.708-9.06h.059a32.769 32.769 0 0111.844 2.786l3.483-6.969a31.756 31.756 0 00-15.33-4.179c-12.541 0-20.206 8.362-20.206 17.419 0 9.768 6.969 13.24 12.541 17.419 8.361 6.271 16.026 10.451 16.026 17.419 0 4.883-2.786 9.767-11.147 9.767a31.012 31.012 0 01-16.026-4.884l-3.486 7.657a35.649 35.649 0 0019.509 5.575c11.844 0 21.591-6.272 21.591-18.116-.004-8.358-4.883-13.236-10.45-17.415z" fill="#24262a"></path>
    <path data-name="Rechteck 2969" fill="#24262a" d="M274.524 556.714h9.767v66.88h-9.767z"></path>
    <path data-name="Pfad 1922" d="M630.657 589.464c-6.968-5.575-18.116-9.767-18.116-17.419a8.977 8.977 0 018.863-9.092 8.3 8.3 0 01.9.034 36.608 36.608 0 0111.844 2.786l3.483-6.969a31.764 31.764 0 00-15.33-4.179c-12.541 0-20.205 8.362-20.205 17.419 0 9.768 6.968 13.24 12.541 17.419 8.361 6.271 16.026 10.451 16.026 17.419 0 4.883-2.786 9.767-11.148 9.767a31.014 31.014 0 01-16.026-4.884l-3.485 7.657a35.648 35.648 0 0019.509 5.575c11.844 0 21.591-6.272 21.591-18.116.005-8.36-4.879-13.238-10.447-17.417z" fill="#24262a"></path>
    <path data-name="Pfad 1923" d="M789.545 589.464c-6.968-5.575-18.116-9.767-18.116-17.419a8.976 8.976 0 018.862-9.092 8.305 8.305 0 01.9.034 32.772 32.772 0 0111.844 2.786l3.483-6.969a31.756 31.756 0 00-15.33-4.179c-12.541 0-20.205 8.362-20.205 17.419 0 9.768 6.968 13.24 12.541 17.419 8.362 6.271 16.026 10.451 16.026 17.419 0 4.883-2.786 9.767-11.147 9.767a31.02 31.02 0 01-16.026-4.884l-3.485 7.657a35.649 35.649 0 0019.509 5.575c11.844 0 21.591-6.272 21.591-18.116.004-8.36-4.881-13.238-10.447-17.417z" fill="#24262a"></path>
    <path data-name="Pfad 1924" d="M1177.717 604.094l-20.9-48.775-20.205 48.775-20.206-47.379h-9.058l30.656 68.283 19.508-46.682 20.9 46.682 29.96-68.283h-10.455z" fill="#24262a"></path>
    <path data-name="Pfad 1925" d="M219.469 589.464c-6.968-5.575-18.115-9.767-18.115-17.419a8.976 8.976 0 018.862-9.092 8.3 8.3 0 01.9.034 32.77 32.77 0 0111.844 2.786l3.48-6.969a31.754 31.754 0 00-15.327-4.179c-12.541 0-20.205 8.362-20.205 17.419 0 9.768 6.968 13.24 12.541 17.419 8.361 6.271 16.026 10.451 16.026 17.419 0 4.883-2.786 9.767-11.148 9.767a31.014 31.014 0 01-16.026-4.884l-3.485 7.657a35.648 35.648 0 0019.509 5.575c11.844 0 21.591-6.272 21.591-18.116.005-8.36-4.879-13.238-10.447-17.417z" fill="#24262a"></path>
    <path data-name="Pfad 1926" d="M135.158 556.707v38.332c0 15.329-6.272 22.3-18.116 22.3s-18.116-6.969-18.116-22.3v-38.324h-9.737v37.625c0 19.508 8.362 30.658 27.87 30.658 17.419 0 27.87-10.451 27.87-30.658v-37.633z" fill="#24262a"></path>
    <path data-name="Pfad 1927" d="M955.417 622.906h9.767V594.34h28.567l-.013-7.666h-28.567V564.39h31.358v-8.375h-41.113z" fill="#24262a"></path>
    <path data-name="Pfad 1928" d="M1964.548 565.075h16.722v58.529-.008h9.767v-58.521h16.723v-8.361h-43.215z" fill="#24262a"></path>
    <path data-name="Pfad 1929" d="M1798.631 556.714h-9.767v66.89h41.126v-8.361h-31.359z" fill="#24262a"></path>
    <path data-name="Pfad 1930" d="M1912.211 595.038c0 15.329-6.272 22.3-18.116 22.3s-18.116-6.969-18.116-22.3v-38.324h-9.744v37.625c0 19.508 8.362 30.659 27.87 30.659 17.419 0 27.87-10.451 27.87-30.659v-37.625h-9.767z" fill="#24262a"></path>
    <path data-name="Pfad 1931" d="M1234.865 623.606h10.451l8.361-18.119h27.87l8.361 18.116h10.451l-32.746-68.282zm22.295-26.479l10.451-22.3 10.451 22.3z" fill="#24262a"></path>
    <path data-name="Pfad 1932" d="M2350.549 589.464c-6.968-5.575-18.116-9.767-18.116-17.419a8.976 8.976 0 018.862-9.092 8.277 8.277 0 01.9.034 36.611 36.611 0 0111.844 2.786l3.485-6.969a31.754 31.754 0 00-15.327-4.179c-12.541 0-20.205 8.362-20.205 17.419 0 9.768 6.968 13.24 12.541 17.419 8.361 6.271 16.026 10.451 16.026 17.419 0 4.883-2.786 9.767-11.147 9.767a31.021 31.021 0 01-16.026-4.884l-3.491 7.657a35.649 35.649 0 0019.509 5.575c11.844 0 21.591-6.272 21.591-18.116.002-8.36-4.879-13.238-10.446-17.417z" fill="#24262a"></path>
    <path data-name="Pfad 1933" d="M2266.95 603.397l-45.986-48.066v68.284h8.361v-47.4l45.986 48.775v-68.276h-8.361z" fill="#24262a"></path>
    <path data-name="Pfad 1934" d="M2140.843 555.314c-21.591 0-36.241 15.33-36.241 34.838 0 18.116 13.936 34.838 36.241 34.838s36.242-16.722 36.242-34.838c-.001-16.026-11.844-34.838-36.242-34.838zm-.707 61.313c-15.33 0-25.781-11.844-25.781-26.475s10.451-26.475 25.781-26.475c16.723 0 25.781 13.24 25.781 26.475-.001 14.634-10.456 26.475-25.781 26.475z" fill="#24262a"></path>
    <path data-name="Rechteck 2970" fill="#24262a" d="M2050.254 556.714h9.767v66.883h-9.767z"></path>
    <path data-name="Pfad 1935" d="M1385.383 575.531c0-11.844-9.767-18.812-21.591-18.812h-22.3v66.891h9.767v-27.879h-.717 4.179l24.387 27.871h11.844l-25.084-28.567c12.543-2.089 19.515-8.361 19.515-19.504zm-34.152 11.147v-21.591l-.684-.007h10.451c9.058 0 14.633 3.483 14.633 10.45s-4.884 11.147-14.633 11.147z" fill="#24262a"></path>
    <path data-name="Pfad 1936" d="M1708.05 555.322c-21.591 0-36.242 15.33-36.242 34.839 0 18.115 13.936 34.838 36.242 34.838s36.242-16.723 36.242-34.838c0-16.026-11.845-34.839-36.242-34.839zm-.01 61.313c-15.33 0-25.781-11.844-25.781-26.474s10.451-26.475 25.781-26.475c16.722 0 25.78 13.24 25.78 26.475 0 14.632-10.451 26.474-25.78 26.474z" fill="#24262a"></path>
    <path data-name="Pfad 1937" d="M1622.313 589.464c-6.968-5.575-18.116-9.767-18.116-17.419a8.977 8.977 0 018.862-9.092 8.282 8.282 0 01.9.034 32.766 32.766 0 0111.844 2.786l3.483-6.969a31.756 31.756 0 00-15.33-4.179c-12.54 0-20.205 8.362-20.205 17.419 0 9.768 6.968 13.24 12.541 17.419 8.361 6.271 16.026 10.451 16.026 17.419 0 4.883-2.786 9.767-11.148 9.767a31.021 31.021 0 01-16.026-4.884l-3.485 7.657a35.654 35.654 0 0019.509 5.575c11.844 0 21.591-6.272 21.591-18.116.005-8.36-4.879-13.238-10.446-17.417z" fill="#24262a"></path>
    <path data-name="Pfad 1938" d="M1441.143 593.653h28.568v-8.372h-28.567v-20.205h31.358v-8.361h-41.1v66.89h41.11v-8.361h-31.358z" fill="#24262a"></path>
    <path data-name="Pfad 1939" d="M1687.818 217.39h-.008c0-105.212-62.012-208.334-227.843-208.334h-122.631v416.667h120.548q7.673-.034 15.065-.329c152.741-6.097 214.869-95.28 214.869-208.004zm-228.547 155.382h-62.715V60.62h62.716c111.483 0 165.134 59.922 165.134 156.772-.001 96.151-46.683 155.379-165.135 155.379z" fill="#24262a"></path>
    <path data-name="Pfad 1940" d="M759.551 337.93a181.648 181.648 0 01-110.09 36.242c-96.151-.008-163.034-66.2-163.034-162.355 0-94.761 68.284-160.952 161.649-160.952 45.986 0 80.825 13.937 105.9 34.142l32.749-40.413C759.554 20.206 712.877.001 649.466.001c-130.992 0-225.753 93.367-225.753 211.816 0 103.819 74.555 213.209 224.36 213.209 62.716 0 107.3-18.116 144.929-51.561z" fill="#24262a"></path>
    <path data-name="Pfad 1941" d="M1266.876 212.509h.008c-.018-98.94-74.558-212.513-222.972-212.513-133.084 0-225.057 92.671-225.057 212.513 0 110.09 86.4 212.513 225.057 212.513a264.751 264.751 0 0028.184-1.5c1.666-.18 3.323-.37 4.969-.581 118.293-15.049 189.811-110.095 189.811-210.432zm-223.66 161.649c-96.851 0-161.649-73.856-161.649-160.952 0-88.49 64.1-162.346 161.649-162.346 102.587 0 157.461 77.811 160.79 154.891q.162 3.729.162 7.455c0 89.194-64.798 160.956-160.952 160.956z" fill="#24262a"></path>
    <path data-name="Pfad 1942" d="M2253.022 425.029V60.619h105.2V9.058l-226.447-2.089 25.78 53.651h36.242v364.41z" fill="#24262a"></path>
    <path data-name="Pfad 1943" d="M2102.514 60.617l-25.089-52.258h-64.1l24.387 52.258z" fill="#fdc606"></path>
    <path data-name="Pfad 1944" d="M208.33 0L4.178 425.026h64.1l140.05-300.305 80.825 176.282h64.8z" fill="#24262a"></path>
    <path data-name="Pfad 1945" d="M323.995 372.768l24.387 51.561h64.8l-25.089-51.561z" fill="#fdc606"></path>
    <path data-name="Pfad 1946" d="M1980.574 301.003h64.8l-145.623-301L1695.6 425.029h64.1l140.05-300.305z" fill="#24262a"></path>
    <path data-name="Pfad 1947" d="M2079.514 372.768h-64.1l24.387 51.561h64.8z" fill="#fdc606"></path>
  </g>
</svg>
